<svg width="106" height="10" viewBox="0 0 106 10" fill="none" xmlns="http://www.w3.org/2000/svg">
<g clip-path="url(#clip0_615_27)">
<path d="M0.0871582 0.4042H2.90551L6.67165 7.19999C6.71321 7.25052 6.75894 7.27578 6.80882 7.27578C6.8587 7.27578 6.90443 7.25052 6.946 7.19999L10.6124 0.4042H13.5804L8.61706 9.47367H4.78857L0.0871582 0.4042ZM23.4419 3.41052C23.4419 3.14946 23.2923 2.91367 22.993 2.70315C22.702 2.49262 22.3695 2.38736 21.9953 2.38736H16.7203V7.46525H21.9953C22.4027 7.46525 22.7436 7.3642 23.0179 7.1621C23.3006 6.95157 23.4419 6.70736 23.4419 6.42946V3.41052ZM25.961 3.43578V7.46525C25.961 8.03789 25.7074 8.51788 25.2003 8.90525C24.6932 9.2842 24.107 9.47367 23.4419 9.47367H14.2262V0.378937H23.4295C24.1528 0.378937 24.7555 0.576832 25.2377 0.972622C25.7199 1.36841 25.961 1.85262 25.961 2.42525V3.43578ZM29.6284 0.378937H35.6143C36.3459 0.378937 36.9528 0.576832 37.435 0.972622C37.9255 1.35999 38.1708 1.8442 38.1708 2.42525V3.41052H35.6891C35.6891 3.14946 35.5312 2.91367 35.2153 2.70315C34.9077 2.49262 34.5626 2.38736 34.1802 2.38736H31.1623C30.7633 2.38736 30.4141 2.50104 30.1148 2.72841C29.8155 2.94736 29.6658 3.18315 29.6658 3.43578V6.42946C29.6658 6.74946 29.803 7.0021 30.0774 7.18736C30.36 7.37262 30.7134 7.46525 31.1374 7.46525H34.1802C34.6042 7.46525 34.9617 7.3642 35.2527 7.1621C35.5437 6.95157 35.6891 6.70736 35.6891 6.42946H38.1708V7.46525C38.1708 8.02946 37.9131 8.50525 37.3976 8.89262C36.8905 9.27999 36.3085 9.47367 35.6517 9.47367H29.6658C28.9509 9.47367 28.3564 9.27999 27.8826 8.89262C27.4087 8.50525 27.1717 8.02946 27.1717 7.46525V2.38736C27.1717 1.87367 27.417 1.41052 27.9075 0.997885C28.398 0.585253 28.9717 0.378937 29.6284 0.378937ZM53.5954 4.06736C54.3602 4.06736 54.9921 4.25683 55.4909 4.63578C55.998 5.00631 56.2516 5.49473 56.2516 6.10104V7.43999C56.2516 8.03788 56.023 8.52631 55.5657 8.90525C55.1084 9.2842 54.5057 9.47367 53.7575 9.47367H47.3975C46.6908 9.47367 46.0964 9.27999 45.6142 8.89262C45.1403 8.49683 44.9034 8.01262 44.9034 7.43999V6.27788H47.3975V6.45473C47.3975 6.73262 47.5263 6.96841 47.7841 7.1621C48.0501 7.34736 48.3577 7.43999 48.7069 7.43999H52.9095C53.4831 7.43999 53.7699 7.18315 53.7699 6.66946C53.7699 6.41683 53.691 6.21052 53.533 6.05052C53.375 5.89052 53.1672 5.81052 52.9095 5.81052H47.4224C46.6409 5.81052 46.0423 5.6421 45.6266 5.30525C45.1444 4.90946 44.9034 4.27788 44.9034 3.41052V2.41262C44.9034 1.83157 45.1528 1.34736 45.6516 0.95999C46.1587 0.572622 46.749 0.378937 47.4224 0.378937H53.8323C54.5722 0.378937 55.1583 0.572622 55.5906 0.95999C56.0313 1.34736 56.2516 1.83157 56.2516 2.41262V3.41052H53.9071C53.9071 3.13262 53.7783 2.89683 53.5205 2.70315C53.2628 2.50946 52.9386 2.41262 52.5478 2.41262H48.2704C47.9961 2.41262 47.7757 2.47578 47.6095 2.6021C47.4515 2.72841 47.3725 2.94736 47.3725 3.25894C47.3725 3.55367 47.4681 3.76841 47.6594 3.90315C47.8173 4.01262 48.021 4.06736 48.2704 4.06736H53.5954ZM57.3739 0.378937H68.3481V2.38736H64.0208V9.47367H61.7012V2.38736H57.3739V0.378937ZM79.5004 3.41052C79.5004 3.14946 79.3549 2.91367 79.0639 2.70315C78.7729 2.49262 78.4404 2.38736 78.0663 2.38736H73.6766C73.2776 2.38736 72.9284 2.50104 72.6291 2.72841C72.3298 2.94736 72.1802 3.18315 72.1802 3.43578V6.42946C72.1802 6.74946 72.3173 7.0021 72.5917 7.18736C72.8744 7.37262 73.2277 7.46525 73.6517 7.46525H78.0663C78.4737 7.46525 78.8145 7.3642 79.0889 7.1621C79.3632 6.95157 79.5004 6.70736 79.5004 6.42946V3.41052ZM82.0195 3.43578V7.46525C82.0195 8.03789 81.7659 8.51788 81.2588 8.90525C80.7516 9.2842 80.1655 9.47367 79.5004 9.47367H72.1802C71.4652 9.47367 70.8708 9.27999 70.3969 8.89262C69.923 8.50525 69.6861 8.02946 69.6861 7.46525V2.38736C69.6861 1.87367 69.9313 1.41052 70.4218 0.997885C70.9123 0.585253 71.486 0.378937 72.1428 0.378937H79.4879C80.2195 0.378937 80.8223 0.576832 81.2962 0.972622C81.7784 1.35999 82.0195 1.8442 82.0195 2.42525V3.43578ZM92.4199 3.41052C92.4199 3.14946 92.2703 2.91367 91.971 2.70315C91.68 2.49262 91.3475 2.38736 90.9733 2.38736H85.6983V4.91367H90.9733C91.389 4.91367 91.734 4.81262 92.0084 4.61052C92.2828 4.40841 92.4199 4.16841 92.4199 3.89052V3.41052ZM94.914 7.27578V9.47367H92.3825V7.79367C92.3825 7.50736 92.2828 7.29683 92.0832 7.1621C91.8504 7.0021 91.468 6.9221 90.9359 6.9221H85.6983V9.47367H83.2042V0.378937H92.4075C93.1308 0.378937 93.7335 0.576832 94.2157 0.972622C94.6979 1.36841 94.939 1.85262 94.939 2.42525V4.54736C94.939 4.8842 94.8434 5.19999 94.6522 5.49473C94.4609 5.78104 94.2032 6.01683 93.879 6.2021C94.145 6.32841 94.3446 6.43367 94.4776 6.51788C94.7686 6.70315 94.914 6.95578 94.914 7.27578ZM96.1008 0.4042H105.865V2.41262H98.5949V4.02946H105.454V5.7221H98.5949V7.47788H105.94V9.49894H96.1008V0.4042Z" fill="black"/>
</g>
<defs>
<clipPath id="clip0_615_27">
<rect width="106" height="10" fill="white"/>
</clipPath>
</defs>
</svg>
